<?xml version="1.0" encoding="utf-8"?><svg viewBox="0 0 502.66 502.66" xmlns="http://www.w3.org/2000/svg" xmlns:xlink="http://www.w3.org/1999/xlink"><style>:root>svg{display:none}:root>svg:target{display:block}</style><svg viewBox="0 0 24 24" id="face" xmlns="http://www.w3.org/2000/svg"><defs><clipPath id="aa"><rect rx="-.5" width="23" height="23" transform="translate(.5 .5)" fill-opacity="0"/></clipPath></defs><rect rx="-.5" width="23" height="23" transform="translate(.5 .5)"/><g clip-path="url(#aa)"><path d="M15.4 21v-6.97h2.33l.35-2.71H15.4V9.59c0-.78.22-1.32 1.34-1.32h1.43V5.85c-.69-.07-1.39-.11-2.09-.1-2.06 0-3.48 1.26-3.48 3.58v1.99h-2.34v2.71h2.34V21H4a1 1 0 01-.71-.3A.984.984 0 013 20V4a.99.99 0 011-1h16c.26 0 .51.1.7.29A1 1 0 0121 4v16c0 .26-.11.51-.3.7-.19.19-.44.3-.7.3h-4.6z"/></g></svg><svg viewBox="0 0 502.664 502.664" id="icon" xmlns="http://www.w3.org/2000/svg"><path d="M153.821 358.226L0 274.337v-46.463l153.821-83.414v54.574L46.636 250.523l107.185 53.431v54.272zm26.273 29.358L282.103 115.08h32.227L212.084 387.584h-31.99zm168.749-29.358v-54.272l107.164-52.999-107.164-52.59v-53.927l153.821 83.522v46.183l-153.821 84.083z"/></svg><svg viewBox="0 0 24 24" id="inst" xmlns="http://www.w3.org/2000/svg"><defs><clipPath id="ca"><rect rx="-.5" width="23" height="23" transform="translate(.5 .5)" fill-opacity="0"/></clipPath></defs><rect rx="-.5" width="23" height="23" transform="translate(.5 .5)"/><g clip-path="url(#ca)"><path d="M12 2c2.71 0 3.05.01 4.12.06 1.06.05 1.79.21 2.42.46.66.25 1.22.6 1.78 1.15.51.5.9 1.11 1.15 1.77.25.64.42 1.37.47 2.43.04 1.07.06 1.41.06 4.13 0 2.71-.01 3.05-.06 4.12-.05 1.06-.22 1.79-.47 2.42-.25.67-.64 1.28-1.15 1.78-.5.51-1.11.9-1.78 1.15-.63.25-1.36.41-2.42.46-1.07.05-1.41.07-4.12.07-2.72 0-3.06-.01-4.13-.07-1.06-.05-1.79-.21-2.42-.46-.67-.25-1.28-.64-1.78-1.15-.51-.5-.9-1.11-1.15-1.78-.25-.63-.42-1.36-.46-2.42C2.01 15.05 2 14.71 2 12c0-2.72.01-3.06.06-4.13.04-1.06.21-1.79.46-2.43.25-.66.64-1.27 1.15-1.77.5-.51 1.11-.9 1.78-1.15.63-.25 1.36-.41 2.42-.46C8.94 2.01 9.28 2 12 2zm0 5c-1.33 0-2.6.52-3.54 1.46S7 10.67 7 12a5.003 5.003 0 005 5c1.32 0 2.59-.53 3.53-1.47S17 13.32 17 12a5.003 5.003 0 00-5-5zm6.5-.25c0-.34-.14-.65-.37-.89a1.266 1.266 0 00-1.77 0 1.266 1.266 0 000 1.77c.24.23.55.37.89.37.33 0 .64-.14.88-.37.23-.24.37-.55.37-.88zM12 9c.79 0 1.55.31 2.12.87.56.57.88 1.33.88 2.13 0 .79-.32 1.55-.88 2.12-.57.56-1.33.88-2.12.88-.8 0-1.56-.32-2.13-.88a3.028 3.028 0 010-4.25C10.44 9.31 11.2 9 12 9z"/></g></svg><svg viewBox="0 0 65 20" id="logo" xmlns="http://www.w3.org/2000/svg"><path d="M42.56 8.45q.32 0 .51.16.26.22.26.75c0 .49-.14.97-.43 1.45-.27.45-.64.82-1.11 1.11-.47.3-.98.45-1.51.45-.57 0-1.31-.21-2.22-.62q-.55 4.03-2.83 6.15-.76.71-1.63 1.17-1.75.93-3.98.93c-1.39 0-2.65-.32-3.76-.95-1.08-.65-1.94-1.5-2.55-2.56a6.714 6.714 0 01-.93-3.45c0-.53.06-1.06.19-1.59q.14-.6.38-1.15.39-.89 1.03-1.67.75-.91 1.69-1.53.38-.25.78-.45 1.29-.64 2.61-.7.13-.01.25-.01c1.03 0 1.87.28 2.53.83 1.23-1.32 1.85-2.46 1.85-3.45 0-.37-.06-.65-.19-.85q-.18-.32-.52-.59c-.16-.16-.29-.29-.37-.41q-.12-.18-.12-.5t.14-.55q.06-.09.13-.16c.19-.18.43-.26.71-.26.45 0 .82.19 1.11.58.29.4.43.92.43 1.57q0 1.64-1.29 3.35c-.86 1.14-1.9 2.21-3.11 3.21q-1.82 1.48-4.56 3.45l-1.79 1.33c.21 1.06.63 2 1.27 2.82.63.81 1.39 1.44 2.27 1.89q.79.37 1.62.53.6.12 1.22.12 1.68 0 3.02-.68.89-.45 1.63-1.21c1.25-1.26 2.01-3.06 2.28-5.42l-.59-.29q-1.29-.65-2.06-.95c-.51-.21-1.01-.32-1.48-.32-.29 0-.52.06-.71.18-.16.11-.24.26-.24.44 0 .23.08.51.24.82.17.36.25.61.25.77 0 .18-.06.34-.18.5-.13.14-.31.21-.56.21-.25 0-.45-.07-.62-.21q-.21-.24-.21-.74c0-.51.16-1 .49-1.47.35-.47.79-.84 1.33-1.12q.72-.38 1.46-.43.11-.01.23-.01c.51 0 1.04.11 1.57.32.56.2 1.23.49 2.03.89.66.33 1.23.6 1.7.79q.71.27 1.29.27c.27 0 .49-.05.65-.15q.23-.15.27-.33.01-.04.01-.08c0-.18-.11-.4-.31-.68-.12-.16-.22-.29-.28-.41a.915.915 0 01-.09-.41q0-.29.14-.45.19-.23.66-.23zm20.89 2.5c-1-.9-2.37-1.45-4.09-1.65 1.21-.43 2.13-1.03 2.77-1.79.66-.77.99-1.62.99-2.57q0-.96-.42-1.69-.39-.67-1.12-1.13c-1.03-.65-2.48-.98-4.35-.98-.31 0-.67.01-1.08.03-.41.02-.71.04-.92.06-.62.06-1.21.09-1.79.09-.55 0-1.3-.02-2.25-.06l-1.63-.03c-.04 0-.06.06-.06.18s.02.18.06.18c.88 0 1.47.13 1.76.41.29.25.43.79.43 1.62v13.64c0 .57-.07 1-.22 1.29-.12.28-.34.47-.64.59-.31.1-.76.15-1.36.15-.06 0-.09.06-.09.17 0 .12.03.18.09.18.7 0 1.25-.01 1.66-.03l2.25-.03c.52 0 .98.01 1.39.03.43.02.79.04 1.08.06.74.06 1.39.09 1.97.09 1.33 0 2.55-.24 3.63-.71 1.09-.49 1.94-1.15 2.56-1.97.62-.83.93-1.75.93-2.77q0-.93-.34-1.72-.38-.91-1.21-1.64zM13.73 5.41c0 .04-.06.07-.18.09-.1.02-.17 0-.19-.06Q12.9 3.82 11.82 3q-.06-.05-.12-.09-1.17-.82-3.08-.82H7.7q-.93 0-1.36.38l-.06.06q-.37.38-.37 1.12v6.36h2.22q1.78 0 2.71-.59c.63-.41.95-.97.95-1.68 0-.04.06-.06.19-.06.12 0 .18.02.18.06l-.03 2.68q0 .94.03 1.42l.03 1.56c0 .06-.06.09-.18.09s-.19-.03-.19-.09q0-.57-.23-1.02-.24-.49-.75-.84-.96-.71-2.74-.71H5.91v6.31c0 .61.08 1.06.25 1.35.16.3.47.5.92.62.45.12 1.16.18 2.13.18h.01q.05.02.05.17c0 .12-.02.18-.06.18q-1.27 0-1.98-.03l-3.14-.03-2.31.03q-.61.03-1.69.03c-.06 0-.09-.06-.09-.18q0-.13.05-.16.02-.01.04-.01c.72 0 1.24-.05 1.57-.15.33-.1.54-.28.65-.56q.18-.44.18-1.32V3.62q0-.89-.15-1.3-.06-.15-.16-.27-.17-.2-.46-.29-.46-.17-1.42-.17-.02 0-.03-.01-.06-.03-.06-.17t.06-.17q.01-.01.03-.01h13.06q.18 0 .26.09.05.06.05.18l.06 3.91zM55.54 2.2c.22-.27.63-.41 1.23-.41q1.15 0 1.87.55.19.15.35.34.77.85.77 2.53c0 1.2-.29 2.18-.86 2.94q-.32.42-.73.69-.72.46-1.74.46l-1.23-.03V3.68c0-.73.11-1.22.34-1.48zm-31.28 8.31q-.15.94-.15 1.59 0 .33.06.91c.55-.43 1.13-.86 1.72-1.29q2.81-2.06 4.38-3.42c-.51-1.04-1.36-1.56-2.53-1.56-.8 0-1.52.36-2.15 1.09-.62.71-1.06 1.6-1.33 2.68zm36.14 7.5q-1.01 1.01-3.04 1.01c-.91 0-1.49-.12-1.76-.38-.27-.27-.4-.74-.4-1.38v-7.1c.47-.04 1.01-.06 1.6-.06 1.54 0 2.69.44 3.45 1.32.76.89 1.14 2.09 1.14 3.6q0 1.99-.99 2.99z" fill-rule="evenodd"/></svg><svg viewBox="0 0 24 24" id="twit" xmlns="http://www.w3.org/2000/svg"><defs><clipPath id="ea"><rect rx="-.5" width="23" height="23" transform="translate(.5 .5)" fill-opacity="0"/></clipPath></defs><rect rx="-.5" width="23" height="23" transform="translate(.5 .5)"/><g clip-path="url(#ea)"><path d="M22.16 5.65c-.77.34-1.58.56-2.4.66A4.26 4.26 0 0021.6 4c-.82.48-1.72.82-2.66 1.01a4.191 4.191 0 00-2.37-1.27c-.91-.15-1.85 0-2.66.44a4.166 4.166 0 00-2.1 4.64 11.825 11.825 0 01-8.62-4.37c-.37.64-.56 1.37-.56 2.11 0 1.45.74 2.73 1.86 3.48a4.19 4.19 0 01-1.9-.52v.05c0 .96.34 1.9.95 2.65a4.2 4.2 0 002.41 1.45c-.62.16-1.26.19-1.89.07.26.83.79 1.56 1.49 2.08s1.54.81 2.42.82c-.87.69-1.87 1.19-2.93 1.49-1.06.29-2.17.38-3.27.25 1.92 1.23 4.14 1.88 6.41 1.88 7.7 0 11.9-6.38 11.9-11.9 0-.18 0-.36-.01-.54a8.62 8.62 0 002.09-2.17z"/></g></svg><svg viewBox="0 0 20 16" id="you" xmlns="http://www.w3.org/2000/svg"><path d="M19.54 2.49C20 4.28 20 8 20 8s0 3.72-.46 5.5c-.26.98-1 1.76-1.94 2.02C15.89 16 10 16 10 16s-5.9 0-7.61-.48A2.828 2.828 0 01.45 13.5C0 11.72 0 8 0 8s0-3.72.45-5.51c.26-.98 1-1.76 1.94-2.02C4.1 0 10 0 10 0s5.89 0 7.6.47c.94.27 1.69 1.04 1.94 2.02zM8 11.5L14 8 8 4.5v7z"/></svg></svg>